<svg xmlns="http://www.w3.org/2000/svg" xmlns:xlink="http://www.w3.org/1999/xlink" width="500" zoomAndPan="magnify" viewBox="0 0 375 374.999991" height="500" preserveAspectRatio="xMidYMid meet" version="1.0"><defs><g/></defs><path fill="#ffffff" d="M 443.007812 277.175781 C 437.464844 277.175781 432.96875 272.679688 432.96875 267.140625 L 432.96875 -40.652344 L 262.589844 129.667969 C 258.667969 133.585938 252.316406 133.585938 248.394531 129.667969 C 244.476562 125.75 244.476562 119.398438 248.394531 115.476562 L 435.910156 -71.972656 C 438.777344 -74.84375 443.09375 -75.703125 446.847656 -74.148438 C 450.597656 -72.59375 453.042969 -68.9375 453.042969 -64.878906 L 453.042969 267.140625 C 453.042969 272.679688 448.550781 277.175781 443.007812 277.175781 Z M -64.09375 452.085938 C -69.636719 452.085938 -74.132812 447.597656 -74.132812 442.054688 L -74.132812 92.230469 C -74.132812 88.171875 -71.683594 84.511719 -67.933594 82.960938 C -64.183594 81.40625 -59.867188 82.265625 -56.996094 85.132812 L 117.972656 260.050781 C 121.894531 263.964844 121.894531 270.320312 117.972656 274.234375 C 114.054688 278.15625 107.699219 278.15625 103.777344 274.234375 L -54.054688 116.453125 L -54.054688 442.054688 C -54.054688 447.597656 -58.550781 452.085938 -64.09375 452.085938 Z M 443.007812 452.085938 C 440.4375 452.085938 437.871094 451.105469 435.910156 449.148438 L -71.191406 -57.785156 C -75.113281 -61.699219 -75.113281 -68.054688 -71.191406 -71.972656 C -67.269531 -75.890625 -60.917969 -75.890625 -56.996094 -71.972656 L 450.101562 434.960938 C 454.023438 438.875 454.023438 445.230469 450.101562 449.148438 C 448.140625 451.105469 445.570312 452.085938 443.007812 452.085938 " fill-opacity="1" fill-rule="nonzero"/><g fill="#fffbfa" fill-opacity="1"><g transform="translate(13.088743, 329.860222)"><g><path d="M 28.984375 -22.9375 L 28.984375 -18.875 L 25.4375 -18.875 L 25.4375 0 L 20.578125 0 L 20.578125 -10.953125 C 20.253906 -11.296875 19.90625 -11.578125 19.53125 -11.796875 C 19.164062 -12.015625 18.765625 -12.125 18.328125 -12.125 C 17.929688 -12.125 17.507812 -11.96875 17.0625 -11.65625 C 16.625 -11.351562 16.40625 -10.710938 16.40625 -9.734375 C 16.40625 -9.316406 16.441406 -8.925781 16.515625 -8.5625 L 12.359375 -8.296875 C 12.160156 -9.503906 11.722656 -10.46875 11.046875 -11.1875 C 10.367188 -11.914062 9.460938 -12.28125 8.328125 -12.28125 C 7.640625 -12.28125 7.09375 -12.097656 6.6875 -11.734375 C 6.28125 -11.378906 6.078125 -10.910156 6.078125 -10.328125 C 6.078125 -9.441406 6.425781 -8.75 7.125 -8.25 C 7.832031 -7.757812 8.691406 -7.359375 9.703125 -7.046875 L 8.296875 -2.90625 C 6.054688 -3.519531 4.289062 -4.460938 3 -5.734375 C 1.707031 -7.003906 1.0625 -8.597656 1.0625 -10.515625 C 1.0625 -11.742188 1.363281 -12.800781 1.96875 -13.6875 C 2.570312 -14.570312 3.378906 -15.253906 4.390625 -15.734375 C 5.398438 -16.210938 6.503906 -16.453125 7.703125 -16.453125 C 9.035156 -16.453125 10.160156 -16.25 11.078125 -15.84375 C 12.003906 -15.4375 12.929688 -14.800781 13.859375 -13.9375 C 14.160156 -14.695312 14.632812 -15.273438 15.28125 -15.671875 C 15.9375 -16.066406 16.632812 -16.265625 17.375 -16.265625 C 18.007812 -16.265625 18.597656 -16.164062 19.140625 -15.96875 C 19.679688 -15.769531 20.1875 -15.5 20.65625 -15.15625 C 20.601562 -15.789062 20.578125 -16.40625 20.578125 -17 L 20.578125 -18.875 L -0.375 -18.875 L -0.375 -22.9375 Z M 28.984375 -22.9375 "/></g></g></g><g fill="#fffbfa" fill-opacity="1"><g transform="translate(71.198232, 329.860222)"><g><path d="M 15.078125 -22.9375 L 15.078125 -18.875 L 12.984375 -18.875 C 11.847656 -18.332031 10.796875 -17.617188 9.828125 -16.734375 C 8.859375 -15.847656 8.066406 -14.816406 7.453125 -13.640625 C 6.835938 -12.460938 6.53125 -11.148438 6.53125 -9.703125 C 6.53125 -8.222656 6.75 -7.066406 7.1875 -6.234375 C 7.632812 -5.398438 8.1875 -4.816406 8.84375 -4.484375 C 9.507812 -4.148438 10.175781 -3.984375 10.84375 -3.984375 C 11.28125 -3.984375 11.707031 -4.023438 12.125 -4.109375 C 12.550781 -4.191406 13.03125 -4.367188 13.5625 -4.640625 L 15.40625 -1 C 14.601562 -0.53125 13.804688 -0.210938 13.015625 -0.046875 C 12.234375 0.109375 11.410156 0.1875 10.546875 0.1875 C 7.796875 0.1875 5.613281 -0.65625 4 -2.34375 C 2.382812 -4.03125 1.578125 -6.445312 1.578125 -9.59375 C 1.578125 -11.53125 1.976562 -13.300781 2.78125 -14.90625 C 3.582031 -16.519531 4.679688 -17.867188 6.078125 -18.953125 C 5.460938 -18.898438 4.578125 -18.875 3.421875 -18.875 L -0.375 -18.875 L -0.375 -22.9375 Z M 15.078125 -22.9375 "/></g></g></g><g fill="#fffbfa" fill-opacity="1"><g transform="translate(85.905627, 329.860222)"><g><path d="M 17.78125 0 L 17.78125 -14.421875 C 17.082031 -15.234375 16.347656 -15.992188 15.578125 -16.703125 C 14.804688 -17.421875 13.960938 -18.003906 13.046875 -18.453125 C 12.140625 -18.910156 11.171875 -19.140625 10.140625 -19.140625 C 9.179688 -19.140625 8.390625 -18.953125 7.765625 -18.578125 C 7.140625 -18.210938 6.554688 -17.757812 6.015625 -17.21875 C 6.398438 -17.394531 6.828125 -17.53125 7.296875 -17.625 C 7.765625 -17.726562 8.296875 -17.78125 8.890625 -17.78125 C 10.535156 -17.78125 11.789062 -17.320312 12.65625 -16.40625 C 13.53125 -15.5 13.96875 -14.40625 13.96875 -13.125 C 13.96875 -11.65625 13.429688 -10.304688 12.359375 -9.078125 C 11.296875 -7.847656 9.671875 -6.617188 7.484375 -5.390625 L 4.6875 -9.328125 C 6.113281 -9.960938 7.25 -10.582031 8.09375 -11.1875 C 8.9375 -11.789062 9.359375 -12.453125 9.359375 -13.171875 C 9.359375 -13.585938 9.226562 -13.910156 8.96875 -14.140625 C 8.71875 -14.367188 8.285156 -14.484375 7.671875 -14.484375 C 6.710938 -14.484375 5.628906 -14.164062 4.421875 -13.53125 L 0.546875 -16.625 C 1.847656 -18.519531 3.25 -20.085938 4.75 -21.328125 C 6.25 -22.566406 7.984375 -23.1875 9.953125 -23.1875 C 11.429688 -23.1875 12.785156 -22.867188 14.015625 -22.234375 C 15.242188 -21.597656 16.519531 -20.664062 17.84375 -19.4375 C 17.820312 -19.726562 17.804688 -20.050781 17.796875 -20.40625 C 17.785156 -20.757812 17.78125 -21.148438 17.78125 -21.578125 L 17.78125 -25.375 L 21.796875 -25.375 L 22.609375 -22.9375 L 26.1875 -22.9375 L 26.1875 -18.875 L 22.640625 -18.875 L 22.640625 0 Z M 17.78125 0 "/></g></g></g><g fill="#fffbfa" fill-opacity="1"><g transform="translate(141.213703, 329.860222)"><g/></g></g><g fill="#fffbfa" fill-opacity="1"><g transform="translate(182.508262, 329.860222)"><g><path d="M 14.671875 -3.03125 C 12.660156 -3.03125 10.773438 -3.421875 9.015625 -4.203125 C 7.253906 -4.992188 5.664062 -6.320312 4.25 -8.1875 C 2.84375 -10.050781 1.609375 -12.582031 0.546875 -15.78125 L 5.15625 -17.078125 C 5.945312 -14.785156 6.769531 -12.914062 7.625 -11.46875 C 8.488281 -10.019531 9.472656 -8.957031 10.578125 -8.28125 C 11.691406 -7.601562 12.984375 -7.265625 14.453125 -7.265625 C 16.171875 -7.265625 17.445312 -7.59375 18.28125 -8.25 C 19.125 -8.914062 19.546875 -9.828125 19.546875 -10.984375 C 19.546875 -11.921875 19.289062 -12.648438 18.78125 -13.171875 C 18.28125 -13.703125 17.640625 -13.96875 16.859375 -13.96875 C 16.285156 -13.96875 15.859375 -13.832031 15.578125 -13.5625 C 15.296875 -13.300781 15.15625 -12.945312 15.15625 -12.5 C 15.15625 -12.101562 15.238281 -11.671875 15.40625 -11.203125 L 10.84375 -10.546875 C 10.644531 -11.015625 10.492188 -11.460938 10.390625 -11.890625 C 10.296875 -12.316406 10.25 -12.703125 10.25 -13.046875 C 10.25 -13.929688 10.414062 -14.679688 10.75 -15.296875 C 11.082031 -15.910156 11.519531 -16.414062 12.0625 -16.8125 C 11.644531 -17.71875 10.820312 -18.40625 9.59375 -18.875 L -0.375 -18.875 L -0.375 -22.9375 L 35.953125 -22.9375 C 36.441406 -22.9375 36.925781 -22.765625 37.40625 -22.421875 C 37.882812 -22.078125 38.320312 -21.472656 38.71875 -20.609375 C 38.664062 -20.734375 38.628906 -21.015625 38.609375 -21.453125 C 38.585938 -21.898438 38.578125 -22.285156 38.578125 -22.609375 L 38.578125 -25.375 L 42.546875 -25.375 L 43.40625 -22.9375 L 46.984375 -22.9375 L 46.984375 -18.875 L 43.4375 -18.875 L 43.4375 0 L 38.578125 0 L 38.578125 -16.375 C 38.179688 -17.28125 37.757812 -17.921875 37.3125 -18.296875 C 36.875 -18.679688 36.332031 -18.875 35.6875 -18.875 L 32.234375 -18.875 L 32.234375 0 L 27.359375 0 C 26.765625 -1.082031 25.96875 -2.046875 24.96875 -2.890625 C 23.976562 -3.742188 22.984375 -4.476562 21.984375 -5.09375 C 21.191406 -4.445312 20.191406 -3.941406 18.984375 -3.578125 C 17.785156 -3.210938 16.347656 -3.03125 14.671875 -3.03125 Z M 24.40625 -10.4375 C 24.40625 -9.644531 24.296875 -8.894531 24.078125 -8.1875 C 25.484375 -7.25 26.613281 -6.316406 27.46875 -5.390625 C 27.394531 -6.171875 27.359375 -7.039062 27.359375 -8 L 27.359375 -18.875 L 15.703125 -18.875 C 16.023438 -18.582031 16.296875 -18.265625 16.515625 -17.921875 C 18.160156 -17.867188 19.566406 -17.507812 20.734375 -16.84375 C 21.910156 -16.1875 22.816406 -15.300781 23.453125 -14.1875 C 24.085938 -13.082031 24.40625 -11.832031 24.40625 -10.4375 Z M 24.40625 -10.4375 "/></g></g></g><g fill="#fffbfa" fill-opacity="1"><g transform="translate(258.605766, 329.860222)"><g><path d="M 11.578125 -22.9375 L 11.578125 -18.875 L 8.03125 -18.875 L 8.03125 0 L 3.171875 0 L 3.171875 -18.875 L -0.375 -18.875 L -0.375 -22.9375 L 3.203125 -22.9375 C 2.785156 -23.375 2.351562 -23.875 1.90625 -24.4375 C 1.46875 -25.007812 1.078125 -25.53125 0.734375 -26 C 1.960938 -27.988281 3.171875 -29.546875 4.359375 -30.671875 C 5.554688 -31.804688 6.816406 -32.613281 8.140625 -33.09375 C 9.472656 -33.570312 10.9375 -33.8125 12.53125 -33.8125 C 13.71875 -33.8125 14.84375 -33.710938 15.90625 -33.515625 C 16.976562 -33.316406 18.097656 -32.976562 19.265625 -32.5 C 20.429688 -32.019531 21.726562 -31.378906 23.15625 -30.578125 C 24.582031 -29.785156 26.242188 -28.800781 28.140625 -27.625 L 25.625 -24.34375 C 23.632812 -25.613281 21.9375 -26.648438 20.53125 -27.453125 C 19.132812 -28.253906 17.859375 -28.835938 16.703125 -29.203125 C 15.546875 -29.578125 14.328125 -29.765625 13.046875 -29.765625 C 11.898438 -29.765625 10.894531 -29.539062 10.03125 -29.09375 C 9.164062 -28.65625 8.421875 -28.097656 7.796875 -27.421875 C 7.171875 -26.742188 6.625 -26.0625 6.15625 -25.375 C 6.375 -24.976562 6.628906 -24.554688 6.921875 -24.109375 C 7.222656 -23.671875 7.535156 -23.28125 7.859375 -22.9375 Z M 11.578125 -22.9375 "/></g></g></g><g fill="#fffbfa" fill-opacity="1"><g transform="translate(269.811412, 329.860222)"><g><path d="M 8.890625 -7.078125 C 7.628906 -7.078125 6.566406 -7.222656 5.703125 -7.515625 C 4.847656 -7.816406 4.1875 -8.296875 3.71875 -8.953125 C 3.40625 -9.421875 3.148438 -9.960938 2.953125 -10.578125 C 2.753906 -11.191406 2.65625 -12.113281 2.65625 -13.34375 L 2.65625 -18.875 L -0.375 -18.875 L -0.375 -22.9375 L 27.390625 -22.9375 L 27.390625 -18.875 L 7.34375 -18.875 L 7.34375 -18.765625 C 7.882812 -18.328125 8.472656 -17.984375 9.109375 -17.734375 C 9.742188 -17.492188 10.539062 -17.375 11.5 -17.375 L 14.09375 -17.375 C 14.675781 -17.445312 15.460938 -17.484375 16.453125 -17.484375 C 18.171875 -17.484375 19.585938 -17.253906 20.703125 -16.796875 C 21.828125 -16.335938 22.707031 -15.765625 23.34375 -15.078125 C 23.976562 -14.390625 24.425781 -13.65625 24.6875 -12.875 C 24.945312 -12.101562 25.078125 -11.410156 25.078125 -10.796875 C 25.078125 -8.953125 24.609375 -7.445312 23.671875 -6.28125 C 22.734375 -5.113281 21.566406 -4.210938 20.171875 -3.578125 C 21.273438 -3.359375 22.398438 -3.097656 23.546875 -2.796875 C 24.691406 -2.503906 25.851562 -2.160156 27.03125 -1.765625 L 25.734375 2.0625 C 22.171875 0.832031 18.75 -0.0546875 15.46875 -0.609375 C 12.1875 -1.160156 8.898438 -1.523438 5.609375 -1.703125 L 6.078125 -5.796875 C 6.691406 -5.671875 7.441406 -5.570312 8.328125 -5.5 C 9.210938 -5.425781 10.1875 -5.390625 11.25 -5.390625 C 14.46875 -5.390625 16.769531 -5.859375 18.15625 -6.796875 C 19.550781 -7.742188 20.25 -8.984375 20.25 -10.515625 C 20.25 -12.109375 19.484375 -13.164062 17.953125 -13.6875 L 17.953125 -13.640625 C 17.953125 -12.410156 17.554688 -11.296875 16.765625 -10.296875 C 15.984375 -9.304688 14.910156 -8.519531 13.546875 -7.9375 C 12.179688 -7.363281 10.628906 -7.078125 8.890625 -7.078125 Z M 7.671875 -11.359375 C 7.941406 -10.984375 8.457031 -10.796875 9.21875 -10.796875 C 10.351562 -10.796875 11.3125 -11.046875 12.09375 -11.546875 C 12.882812 -12.054688 13.28125 -12.582031 13.28125 -13.125 C 13.28125 -13.664062 12.859375 -13.9375 12.015625 -13.9375 L 11.03125 -13.9375 C 10.34375 -13.9375 9.679688 -14.039062 9.046875 -14.25 C 8.421875 -14.457031 7.828125 -14.75 7.265625 -15.125 C 7.316406 -14.675781 7.34375 -14.304688 7.34375 -14.015625 L 7.34375 -12.90625 C 7.34375 -12.414062 7.367188 -12.054688 7.421875 -11.828125 C 7.484375 -11.609375 7.566406 -11.453125 7.671875 -11.359375 Z M 7.671875 -11.359375 "/></g></g></g><g fill="#fffbfa" fill-opacity="1"><g transform="translate(326.311406, 329.860222)"><g/></g></g><g fill="#fffbfa" fill-opacity="1"><g transform="translate(111.076832, 320.92267)"><g><path d="M 2.160156 0.105469 C 2.734375 0.105469 3.109375 -0.285156 3.109375 -0.820312 C 3.109375 -1.359375 2.734375 -1.75 2.160156 -1.75 C 1.589844 -1.75 1.214844 -1.359375 1.214844 -0.820312 C 1.214844 -0.285156 1.589844 0.105469 2.160156 0.105469 Z M 2.160156 0.105469 "/></g></g></g><g fill="#fffbfa" fill-opacity="1"><g transform="translate(122.544889, 320.92267)"><g><path d="M 7.484375 0.230469 C 10.433594 0.230469 12.84375 -1.5 13.613281 -4.199219 L 12.46875 -4.199219 C 11.773438 -2.125 9.84375 -0.859375 7.503906 -0.859375 C 4.449219 -0.859375 2.25 -3.054688 2.25 -6.253906 C 2.25 -9.449219 4.449219 -11.648438 7.503906 -11.648438 C 9.789062 -11.648438 11.648438 -10.433594 12.359375 -8.449219 L 13.503906 -8.449219 C 12.683594 -11.074219 10.34375 -12.734375 7.484375 -12.734375 C 3.804688 -12.734375 1.144531 -10.058594 1.144531 -6.253906 C 1.144531 -2.445312 3.804688 0.230469 7.484375 0.230469 Z M 7.484375 0.230469 "/></g></g></g><g fill="#fffbfa" fill-opacity="1"><g transform="translate(144.373543, 320.92267)"><g><path d="M 7.589844 0.230469 C 11.414062 0.230469 14.039062 -2.429688 14.039062 -6.253906 C 14.039062 -10.074219 11.414062 -12.734375 7.589844 -12.734375 C 3.785156 -12.734375 1.144531 -10.074219 1.144531 -6.253906 C 1.144531 -2.429688 3.785156 0.230469 7.589844 0.230469 Z M 2.25 -6.253906 C 2.25 -9.46875 4.429688 -11.648438 7.589844 -11.648438 C 10.769531 -11.648438 12.949219 -9.46875 12.949219 -6.253906 C 12.949219 -3.054688 10.769531 -0.859375 7.589844 -0.859375 C 4.429688 -0.859375 2.25 -3.054688 2.25 -6.253906 Z M 2.25 -6.253906 "/></g></g></g><g fill="#fffbfa" fill-opacity="1"><g transform="translate(166.70236, 320.92267)"><g><path d="M 2.019531 0 L 3.109375 0 L 3.109375 -10.503906 L 7.789062 -3.484375 L 8.679688 -3.484375 L 13.363281 -10.503906 L 13.363281 0 L 14.433594 0 L 14.433594 -12.503906 L 13.433594 -12.503906 L 8.234375 -4.679688 L 3.035156 -12.503906 L 2.019531 -12.503906 Z M 2.019531 0 "/></g></g></g><g fill="#fffbfa" fill-opacity="1"><g transform="translate(93.099729, 61.424254)"><g><path d="M 18.765625 -22.9375 C 18.742188 -23.695312 18.546875 -24.242188 18.171875 -24.578125 C 17.804688 -24.910156 17.15625 -25.078125 16.21875 -25.078125 L 10.984375 -25.078125 C 9.117188 -25.078125 7.601562 -25.253906 6.4375 -25.609375 C 5.269531 -25.960938 4.351562 -26.507812 3.6875 -27.25 C 2.800781 -28.226562 2.359375 -29.640625 2.359375 -31.484375 C 2.359375 -31.859375 2.367188 -32.195312 2.390625 -32.5 C 2.421875 -32.8125 2.472656 -33.1875 2.546875 -33.625 L 7.15625 -33.328125 C 7.125 -33.109375 7.101562 -32.910156 7.09375 -32.734375 C 7.082031 -32.566406 7.078125 -32.410156 7.078125 -32.265625 C 7.078125 -31.742188 7.128906 -31.273438 7.234375 -30.859375 C 7.347656 -30.441406 7.539062 -30.113281 7.8125 -29.875 C 8.0625 -29.625 8.398438 -29.4375 8.828125 -29.3125 C 9.265625 -29.1875 9.945312 -29.125 10.875 -29.125 L 16.265625 -29.125 C 17.710938 -29.125 18.859375 -29.015625 19.703125 -28.796875 C 20.554688 -28.578125 21.273438 -28.1875 21.859375 -27.625 C 22.328125 -27.15625 22.6875 -26.535156 22.9375 -25.765625 C 23.1875 -25.003906 23.332031 -24.0625 23.375 -22.9375 L 27.6875 -22.9375 L 27.6875 -18.875 L 14.859375 -18.875 L 14.859375 -14.125 C 14.859375 -13.75 14.921875 -13.429688 15.046875 -13.171875 C 15.171875 -12.921875 15.425781 -12.796875 15.8125 -12.796875 C 16.28125 -12.796875 16.800781 -13.050781 17.375 -13.5625 C 17.957031 -14.082031 18.546875 -14.757812 19.140625 -15.59375 L 23.453125 -16.40625 C 24.285156 -15.207031 24.910156 -14 25.328125 -12.78125 C 25.742188 -11.5625 25.953125 -10.25 25.953125 -8.84375 C 25.953125 -7.300781 25.578125 -5.921875 24.828125 -4.703125 C 24.078125 -3.484375 22.957031 -2.515625 21.46875 -1.796875 C 19.988281 -1.085938 18.15625 -0.734375 15.96875 -0.734375 C 14.34375 -0.734375 12.78125 -0.96875 11.28125 -1.4375 C 9.78125 -1.90625 8.375 -2.695312 7.0625 -3.8125 C 5.75 -4.9375 4.546875 -6.472656 3.453125 -8.421875 C 2.359375 -10.378906 1.40625 -12.832031 0.59375 -15.78125 L 5.203125 -17.078125 C 6.015625 -14.148438 6.9375 -11.796875 7.96875 -10.015625 C 9 -8.234375 10.140625 -6.941406 11.390625 -6.140625 C 12.648438 -5.335938 14.039062 -4.9375 15.5625 -4.9375 C 17.332031 -4.9375 18.703125 -5.328125 19.671875 -6.109375 C 20.640625 -6.898438 21.125 -8.023438 21.125 -9.484375 C 21.125 -10.117188 21.039062 -10.707031 20.875 -11.25 C 19.914062 -10.363281 18.9375 -9.71875 17.9375 -9.3125 C 16.945312 -8.90625 15.929688 -8.703125 14.890625 -8.703125 C 13.273438 -8.703125 12.0625 -9.171875 11.25 -10.109375 C 10.832031 -10.566406 10.519531 -11.164062 10.3125 -11.90625 C 10.101562 -12.644531 10 -13.59375 10 -14.75 L 10 -18.875 L -0.375 -18.875 L -0.375 -22.9375 Z M 18.765625 -22.9375 "/></g></g></g><g fill="#fffbfa" fill-opacity="1"><g transform="translate(149.919093, 61.424254)"><g><path d="M 15.53125 -2.140625 C 13.289062 -2.140625 11.222656 -2.5625 9.328125 -3.40625 C 7.429688 -4.257812 5.742188 -5.679688 4.265625 -7.671875 C 2.796875 -9.660156 1.570312 -12.363281 0.59375 -15.78125 L 5.203125 -17.078125 C 6.234375 -13.390625 7.546875 -10.660156 9.140625 -8.890625 C 10.742188 -7.117188 12.773438 -6.234375 15.234375 -6.234375 C 16.847656 -6.234375 18.035156 -6.519531 18.796875 -7.09375 C 19.566406 -7.675781 19.953125 -8.421875 19.953125 -9.328125 C 19.953125 -9.648438 19.925781 -9.96875 19.875 -10.28125 C 19.132812 -9.863281 18.351562 -9.53125 17.53125 -9.28125 C 16.707031 -9.039062 15.804688 -8.921875 14.828125 -8.921875 C 13.148438 -8.921875 11.800781 -9.300781 10.78125 -10.0625 C 9.757812 -10.820312 9.25 -11.941406 9.25 -13.421875 C 9.25 -13.960938 9.347656 -14.554688 9.546875 -15.203125 C 9.742188 -15.859375 10.109375 -16.507812 10.640625 -17.15625 C 11.171875 -17.8125 11.925781 -18.398438 12.90625 -18.921875 C 12.46875 -18.890625 12.054688 -18.875 11.671875 -18.875 C 11.285156 -18.875 10.847656 -18.875 10.359375 -18.875 L -0.375 -18.875 L -0.375 -22.9375 L 56.78125 -22.9375 L 56.78125 -18.875 L 26.03125 -18.875 C 25.5625 -18.875 24.992188 -18.882812 24.328125 -18.90625 C 23.671875 -18.9375 23.035156 -18.960938 22.421875 -18.984375 C 23.035156 -18.421875 23.773438 -18.035156 24.640625 -17.828125 C 25.515625 -17.617188 26.53125 -17.515625 27.6875 -17.515625 C 28.40625 -17.515625 29.128906 -17.566406 29.859375 -17.671875 C 30.597656 -17.785156 31.363281 -17.96875 32.15625 -18.21875 C 33.238281 -17.769531 34.300781 -17.375 35.34375 -17.03125 C 36.382812 -16.6875 37.582031 -16.414062 38.9375 -16.21875 C 40.289062 -16.03125 41.953125 -15.9375 43.921875 -15.9375 C 44.953125 -15.9375 46.03125 -15.984375 47.15625 -16.078125 C 48.289062 -16.171875 49.472656 -16.304688 50.703125 -16.484375 L 53.359375 -12.6875 L 53.359375 4.3125 L 48.484375 4.3125 C 47.578125 3.550781 46.71875 2.9375 45.90625 2.46875 C 45.09375 2 44.242188 1.617188 43.359375 1.328125 C 42.472656 1.035156 41.441406 0.765625 40.265625 0.515625 L 39.34375 -1.515625 C 38.632812 -1.046875 37.78125 -0.675781 36.78125 -0.40625 C 35.789062 -0.132812 34.640625 0 33.328125 0 C 31.265625 0 29.363281 -0.382812 27.625 -1.15625 C 25.894531 -1.9375 24.359375 -3.210938 23.015625 -4.984375 C 22.273438 -4.171875 21.289062 -3.492188 20.0625 -2.953125 C 18.832031 -2.410156 17.320312 -2.140625 15.53125 -2.140625 Z M 24.15625 -12.609375 C 24.46875 -11.847656 24.648438 -10.925781 24.703125 -9.84375 C 25.660156 -7.945312 26.828125 -6.515625 28.203125 -5.546875 C 29.585938 -4.578125 31.203125 -4.09375 33.046875 -4.09375 C 34.660156 -4.09375 35.847656 -4.378906 36.609375 -4.953125 C 37.378906 -5.535156 37.765625 -6.28125 37.765625 -7.1875 C 37.765625 -7.507812 37.738281 -7.832031 37.6875 -8.15625 C 36.945312 -7.726562 36.164062 -7.390625 35.34375 -7.140625 C 34.519531 -6.898438 33.617188 -6.78125 32.640625 -6.78125 C 30.984375 -6.78125 29.640625 -7.160156 28.609375 -7.921875 C 27.578125 -8.691406 27.0625 -9.835938 27.0625 -11.359375 C 27.0625 -11.722656 27.109375 -12.113281 27.203125 -12.53125 C 27.304688 -12.957031 27.46875 -13.378906 27.6875 -13.796875 C 25.601562 -13.816406 23.707031 -14.164062 22 -14.84375 C 20.289062 -15.519531 18.867188 -16.519531 17.734375 -17.84375 C 16.554688 -17.28125 15.644531 -16.675781 15 -16.03125 C 14.363281 -15.394531 14.046875 -14.75 14.046875 -14.09375 C 14.046875 -13.664062 14.175781 -13.328125 14.4375 -13.078125 C 14.695312 -12.835938 15.035156 -12.71875 15.453125 -12.71875 C 16.066406 -12.71875 16.617188 -12.847656 17.109375 -13.109375 C 17.597656 -13.367188 18.148438 -13.734375 18.765625 -14.203125 Z M 44.0625 -12.09375 C 41.726562 -12.09375 39.617188 -12.257812 37.734375 -12.59375 C 35.859375 -12.925781 34.234375 -13.363281 32.859375 -13.90625 C 32.484375 -13.5625 32.222656 -13.226562 32.078125 -12.90625 C 31.929688 -12.582031 31.859375 -12.265625 31.859375 -11.953125 C 31.859375 -11.535156 31.988281 -11.203125 32.25 -10.953125 C 32.507812 -10.703125 32.847656 -10.578125 33.265625 -10.578125 C 33.898438 -10.578125 34.453125 -10.703125 34.921875 -10.953125 C 35.390625 -11.203125 35.941406 -11.570312 36.578125 -12.0625 L 41.96875 -10.46875 C 42.132812 -10 42.265625 -9.484375 42.359375 -8.921875 C 42.460938 -8.359375 42.515625 -7.742188 42.515625 -7.078125 C 42.515625 -6.609375 42.46875 -6.140625 42.375 -5.671875 C 43.351562 -6.140625 44.359375 -6.585938 45.390625 -7.015625 C 46.421875 -7.453125 47.453125 -7.851562 48.484375 -8.21875 L 48.484375 -12.3125 C 47.847656 -12.238281 47.132812 -12.179688 46.34375 -12.140625 C 45.5625 -12.109375 44.800781 -12.09375 44.0625 -12.09375 Z M 48.484375 -4.234375 C 47.703125 -3.992188 46.867188 -3.703125 45.984375 -3.359375 C 45.097656 -3.015625 44.1875 -2.617188 43.25 -2.171875 C 44.28125 -1.953125 45.238281 -1.632812 46.125 -1.21875 C 47.007812 -0.800781 47.820312 -0.285156 48.5625 0.328125 C 48.539062 0.0546875 48.519531 -0.222656 48.5 -0.515625 C 48.488281 -0.804688 48.484375 -1.113281 48.484375 -1.4375 Z M 48.484375 -4.234375 "/></g></g></g><g fill="#fffbfa" fill-opacity="1"><g transform="translate(235.8215, 61.424254)"><g><path d="M 28.984375 -22.9375 L 28.984375 -18.875 L 25.4375 -18.875 L 25.4375 0 L 20.578125 0 L 20.578125 -10.953125 C 20.253906 -11.296875 19.90625 -11.578125 19.53125 -11.796875 C 19.164062 -12.015625 18.765625 -12.125 18.328125 -12.125 C 17.929688 -12.125 17.507812 -11.96875 17.0625 -11.65625 C 16.625 -11.351562 16.40625 -10.710938 16.40625 -9.734375 C 16.40625 -9.316406 16.441406 -8.925781 16.515625 -8.5625 L 12.359375 -8.296875 C 12.160156 -9.503906 11.722656 -10.46875 11.046875 -11.1875 C 10.367188 -11.914062 9.460938 -12.28125 8.328125 -12.28125 C 7.640625 -12.28125 7.09375 -12.097656 6.6875 -11.734375 C 6.28125 -11.378906 6.078125 -10.910156 6.078125 -10.328125 C 6.078125 -9.441406 6.425781 -8.75 7.125 -8.25 C 7.832031 -7.757812 8.691406 -7.359375 9.703125 -7.046875 L 8.296875 -2.90625 C 6.054688 -3.519531 4.289062 -4.460938 3 -5.734375 C 1.707031 -7.003906 1.0625 -8.597656 1.0625 -10.515625 C 1.0625 -11.742188 1.363281 -12.800781 1.96875 -13.6875 C 2.570312 -14.570312 3.378906 -15.253906 4.390625 -15.734375 C 5.398438 -16.210938 6.503906 -16.453125 7.703125 -16.453125 C 9.035156 -16.453125 10.160156 -16.25 11.078125 -15.84375 C 12.003906 -15.4375 12.929688 -14.800781 13.859375 -13.9375 C 14.160156 -14.695312 14.632812 -15.273438 15.28125 -15.671875 C 15.9375 -16.066406 16.632812 -16.265625 17.375 -16.265625 C 18.007812 -16.265625 18.597656 -16.164062 19.140625 -15.96875 C 19.679688 -15.769531 20.1875 -15.5 20.65625 -15.15625 C 20.601562 -15.789062 20.578125 -16.40625 20.578125 -17 L 20.578125 -18.875 L -0.375 -18.875 L -0.375 -22.9375 Z M 28.984375 -22.9375 "/></g></g></g><g fill="#fffbfa" fill-opacity="1"><g transform="translate(293.919102, 61.424254)"><g/></g></g><g fill="#fffbfa" fill-opacity="1"><g transform="translate(136.952086, 296.61079)"><g><path d="M 22.34375 -22.9375 L 22.34375 -20.3125 L 18.46875 -20.3125 L 18.46875 0 L 15.640625 0 C 14.898438 -1.476562 13.882812 -2.835938 12.59375 -4.078125 C 11.300781 -5.316406 9.816406 -6.359375 8.140625 -7.203125 C 6.472656 -8.054688 4.691406 -8.640625 2.796875 -8.953125 L 1.359375 -12.5 C 3.597656 -13.851562 5.90625 -15.082031 8.28125 -16.1875 C 10.65625 -17.289062 13.109375 -18.25 15.640625 -19.0625 L 15.640625 -20.3125 L -0.375 -20.3125 L -0.375 -22.9375 Z M 4.796875 -11.203125 C 6.046875 -10.929688 7.367188 -10.46875 8.765625 -9.8125 C 10.171875 -9.164062 11.492188 -8.351562 12.734375 -7.375 C 13.984375 -6.394531 14.988281 -5.265625 15.75 -3.984375 C 15.71875 -4.421875 15.691406 -4.875 15.671875 -5.34375 C 15.648438 -5.8125 15.640625 -6.351562 15.640625 -6.96875 L 15.640625 -16.1875 C 13.867188 -15.570312 12.023438 -14.835938 10.109375 -13.984375 C 8.191406 -13.140625 6.421875 -12.210938 4.796875 -11.203125 Z M 6.8125 0.21875 C 6.195312 0.21875 5.675781 0.0195312 5.25 -0.375 C 4.820312 -0.769531 4.609375 -1.285156 4.609375 -1.921875 C 4.609375 -2.554688 4.820312 -3.082031 5.25 -3.5 C 5.675781 -3.925781 6.195312 -4.140625 6.8125 -4.140625 C 7.425781 -4.140625 7.945312 -3.925781 8.375 -3.5 C 8.8125 -3.082031 9.03125 -2.554688 9.03125 -1.921875 C 9.03125 -1.285156 8.8125 -0.769531 8.375 -0.375 C 7.945312 0.0195312 7.425781 0.21875 6.8125 0.21875 Z M 6.8125 0.21875 "/></g></g></g><g fill="#fffbfa" fill-opacity="1"><g transform="translate(158.921017, 296.61079)"><g><path d="M 10.171875 -22.9375 L 10.171875 -20.3125 L 6.3125 -20.3125 L 6.3125 0 L 3.46875 0 L 3.46875 -17.296875 C 3.175781 -18.128906 2.738281 -18.835938 2.15625 -19.421875 C 1.582031 -20.015625 0.835938 -20.3125 -0.078125 -20.3125 L -0.375 -20.3125 L -0.375 -22.9375 L 0.1875 -22.9375 C 0.769531 -22.9375 1.375 -22.738281 2 -22.34375 C 2.632812 -21.945312 3.160156 -21.367188 3.578125 -20.609375 C 3.554688 -20.734375 3.53125 -21.015625 3.5 -21.453125 C 3.476562 -21.898438 3.46875 -22.285156 3.46875 -22.609375 L 3.46875 -25.375 L 5.453125 -25.375 L 6.265625 -22.9375 Z M 10.171875 -22.9375 "/></g></g></g><g fill="#fffbfa" fill-opacity="1"><g transform="translate(198.231606, 296.61079)"><g><path d="M 23.453125 -22.9375 L 23.453125 -20.3125 L 19.578125 -20.3125 L 19.578125 0 L 16.734375 0 C 15.703125 -1.375 14.5625 -2.582031 13.3125 -3.625 C 12.0625 -4.675781 10.609375 -5.550781 8.953125 -6.25 C 7.304688 -6.945312 5.351562 -7.46875 3.09375 -7.8125 L 1.765625 -11.171875 C 2.898438 -11.929688 4.117188 -12.65625 5.421875 -13.34375 C 6.722656 -14.03125 8.015625 -14.671875 9.296875 -15.265625 C 8.359375 -15.953125 7.28125 -16.578125 6.0625 -17.140625 C 4.84375 -17.710938 3.410156 -18.171875 1.765625 -18.515625 L 2.578125 -20.3125 L -0.375 -20.3125 L -0.375 -22.9375 Z M 16.734375 -20.3125 L 5.3125 -20.3125 C 6.21875 -20 7.125 -19.59375 8.03125 -19.09375 C 8.945312 -18.601562 9.785156 -18.078125 10.546875 -17.515625 C 11.304688 -16.953125 11.921875 -16.425781 12.390625 -15.9375 L 12.578125 -13.859375 C 11.347656 -13.316406 10.066406 -12.71875 8.734375 -12.0625 C 7.410156 -11.414062 6.234375 -10.773438 5.203125 -10.140625 C 7.878906 -9.648438 10.125 -8.835938 11.9375 -7.703125 C 13.757812 -6.578125 15.382812 -5.226562 16.8125 -3.65625 C 16.757812 -4.507812 16.734375 -5.394531 16.734375 -6.3125 Z M 6.640625 0.21875 C 6.023438 0.21875 5.503906 0.0195312 5.078125 -0.375 C 4.648438 -0.769531 4.4375 -1.285156 4.4375 -1.921875 C 4.4375 -2.554688 4.648438 -3.082031 5.078125 -3.5 C 5.503906 -3.925781 6.023438 -4.140625 6.640625 -4.140625 C 7.253906 -4.140625 7.773438 -3.925781 8.203125 -3.5 C 8.640625 -3.082031 8.859375 -2.554688 8.859375 -1.921875 C 8.859375 -1.285156 8.640625 -0.769531 8.203125 -0.375 C 7.773438 0.0195312 7.253906 0.21875 6.640625 0.21875 Z M 6.640625 0.21875 "/></g></g></g><g fill="#fffbfa" fill-opacity="1"><g transform="translate(250.806329, 296.61079)"><g/></g></g></svg>